<svg width="66" height="143" viewBox="0 0 66 143" fill="none" xmlns="http://www.w3.org/2000/svg">
<g id="Vector element right">
<path d="M23.3706 1.51546C20.1616 3.78299 19.4075 8.21834 21.6863 11.4221C23.9671 14.6247 28.417 15.3826 31.626 13.1151C34.8366 10.8479 35.5895 6.41057 33.312 3.20878C31.0315 0.00460766 26.5799 -0.753722 23.3706 1.51546ZM23.8469 22.1719C25.9125 22.3274 27.9859 22.0091 29.8613 21.1309L36.0836 18.2119C39.2924 16.7069 41.8616 14.0636 43.1273 10.7585C43.4275 9.97184 43.8196 9.20758 44.3061 8.4784C47.9516 3.00962 55.4638 1.64342 60.8416 5.57775C65.6421 9.08985 66.99 15.7588 63.9304 20.8425C59.8113 27.6918 53.1242 26.5167 49.2741 25.0343C47.1128 24.2036 44.7051 24.3048 42.6104 25.2876L37.3574 27.7504C34.0848 29.2842 33.212 33.5233 35.6083 36.2279L38.3892 39.3649C41.6624 43.0554 46.3097 45.1773 51.2419 45.4403C53.7507 45.5745 56.2584 46.3604 58.5038 47.8498C65.2848 52.3491 67.0597 61.5404 62.3693 68.2248C58.0181 74.427 48.9681 76.1803 42.5867 72.0615C37.9622 69.0767 35.6088 63.9331 35.9758 58.8382C36.3265 53.9472 34.7642 49.1079 31.5036 45.4306L26.2252 39.4764C24.828 37.8994 23.0557 36.6877 21.0566 36.0215C20.4679 35.8267 19.8989 35.5516 19.3592 35.1931C16.9796 33.6147 15.8563 30.8595 16.2464 28.2185L16.4081 27.4387C16.6025 26.706 16.9162 25.9898 17.3608 25.3238C18.8397 23.1043 21.3556 21.9829 23.8469 22.1719Z" fill="url(#paint0_linear_5216_164)"/>
<path d="M34.7114 129.338C31.5025 131.605 30.7483 136.041 33.0288 139.245C35.3063 142.447 39.7579 143.205 42.9668 140.938C46.1778 138.669 46.9316 134.235 44.6511 131.031C42.3723 127.827 37.9224 127.069 34.7114 129.338ZM42.8767 121.26C40.8212 120.998 38.733 121.213 36.8155 121.993L30.4506 124.591C27.168 125.931 24.4664 128.439 23.0341 131.676C22.6929 132.444 22.2618 133.189 21.7381 133.891C17.8173 139.167 10.2445 140.147 5.07599 135.945C0.461306 132.193 -0.542279 125.465 2.77218 120.543C7.23666 113.915 13.8564 115.427 17.6262 117.104C19.7419 118.046 22.1529 118.068 24.2945 117.193L29.6685 115.001C33.014 113.636 34.1059 109.448 31.8506 106.625L29.2338 103.352C26.1552 99.4973 21.6192 97.1429 16.7089 96.6288C14.2084 96.3651 11.7465 95.4529 9.58005 93.8515C3.03691 89.0115 1.73511 79.7434 6.76285 73.3078C11.4281 67.3354 20.5557 66.0458 26.718 70.4836C31.1861 73.7013 33.2698 78.957 32.6446 84.0284C32.0415 88.8938 33.3533 93.8063 36.4217 97.6444L41.3881 103.86C42.7008 105.505 44.41 106.804 46.3743 107.572C46.949 107.798 47.5047 108.101 48.0246 108.486C50.32 110.184 51.3031 112.992 50.7763 115.61L50.5767 116.381C50.343 117.103 49.9932 117.802 49.5144 118.443C47.9229 120.586 45.3533 121.576 42.8767 121.26Z" fill="url(#paint1_linear_5216_164)"/>
</g>
<defs>
<linearGradient id="paint0_linear_5216_164" x1="30.0101" y1="-2.36185" x2="24.8048" y2="136.94" gradientUnits="userSpaceOnUse">
<stop stop-color="#30AB4C"/>
<stop offset="0.853177" stop-opacity="0"/>
</linearGradient>
<linearGradient id="paint1_linear_5216_164" x1="30.0101" y1="-2.36185" x2="24.8048" y2="136.94" gradientUnits="userSpaceOnUse">
<stop stop-color="#30AB4C"/>
<stop offset="0.853177" stop-opacity="0"/>
</linearGradient>
</defs>
</svg>
